<svg width="1523" height="981" viewBox="0 0 1523 981" fill="none" xmlns="http://www.w3.org/2000/svg">
<rect width="1521.76" height="981" fill="url(#paint0_linear_433_47019)"/>
<path fill-rule="evenodd" clip-rule="evenodd" d="M280.33 387.049C258.935 362.837 225.027 348.563 187.231 351.344C149.755 354.134 117 373.114 96.9222 400.302L92.7329 399.977C45.0439 395.92 3.6681 428.68 0.228552 472.727C-3.211 516.775 32.577 555.574 80.2098 559.27C87.281 559.893 94.3793 559.639 101.396 558.531C115.657 578.844 139.53 593.101 167.483 595.27C185.303 596.839 203.295 592.839 219.725 583.654C238.772 592.71 259.365 596.549 280.045 594.898C301.054 593.42 321.664 586.329 340.377 574.141C351.259 579.395 363.044 581.647 374.886 580.736C413.97 577.867 444.782 542.761 443.716 502.434C442.676 463.941 412.934 434.617 376.277 434.469C357.096 404.847 321.319 385.91 280.33 387.049Z" fill="white" fill-opacity="0.4"/>
<path fill-rule="evenodd" clip-rule="evenodd" d="M1115.89 389.414C1089.01 371.444 1052.57 366.265 1016.74 378.567C981.215 390.795 954.4 417.477 941.944 448.871L937.81 449.622C890.661 457.828 859.038 500.026 866.984 543.491C874.931 586.956 919.464 615.369 966.466 606.83C973.463 605.634 980.261 603.583 986.763 600.727C1005.75 616.741 1032.48 624.455 1060.06 619.444C1077.7 616.43 1094.07 607.986 1107.61 594.926C1128.34 598.839 1149.23 597.314 1168.81 590.458C1188.74 583.686 1206.86 571.588 1221.83 555.044C1233.7 557.357 1245.67 556.538 1256.89 552.645C1293.94 539.932 1314.75 498.152 1303.4 459.43C1292.54 422.475 1256.28 401.685 1220.8 410.864C1194.67 387.101 1155.23 377.888 1115.89 389.414Z" fill="white" fill-opacity="0.4"/>
<path d="M1197.93 81L1199.75 153H1195.74L1197.93 81Z" fill="#D6A66D"/>
<path fill-rule="evenodd" clip-rule="evenodd" d="M1240.88 432L1219.16 233H1198.25H1177.33L1155.61 432H1198.25H1240.88Z" fill="#F8FAFC"/>
<path d="M1197.91 147L1170.66 175H1225.15L1197.91 147Z" fill="#D6A66D"/>
<rect width="34.5126" height="44" transform="matrix(-1 0 0 1 1215.5 189)" fill="#F8FAFC"/>
<path d="M1209.41 207.673C1209.41 201.226 1204.19 196 1197.74 196C1191.29 196 1186.06 201.226 1186.06 207.673V233H1209.41V207.673Z" fill="#D9D9D9" fill-opacity="0.26"/>
<path d="M1208.4 275.643C1208.4 270.317 1204.08 266 1198.75 266C1193.43 266 1189.11 270.317 1189.11 275.643V287H1208.4V275.643Z" fill="#D9D9D9" fill-opacity="0.26"/>
<path d="M1207.38 329.643C1207.38 324.317 1203.06 320 1197.74 320C1192.41 320 1188.1 324.317 1188.1 329.643V341H1207.38V329.643Z" fill="#D9D9D9" fill-opacity="0.26"/>
<path fill-rule="evenodd" clip-rule="evenodd" d="M1219.56 218H1176.93V233H1219.56V218ZM1215.21 223.305C1215.21 222.584 1214.63 222 1213.91 222C1213.19 222 1212.6 222.584 1212.6 223.305V229H1215.21V223.305ZM1207.82 222C1208.54 222 1209.12 222.584 1209.12 223.305V229H1206.51V223.305C1206.51 222.584 1207.1 222 1207.82 222ZM1203.03 223.305C1203.03 222.584 1202.45 222 1201.73 222C1201.01 222 1200.42 222.584 1200.42 223.305V229H1203.03V223.305ZM1195.64 222C1196.36 222 1196.94 222.584 1196.94 223.305V229H1194.33V223.305C1194.33 222.584 1194.91 222 1195.64 222ZM1190.85 223.305C1190.85 222.584 1190.27 222 1189.55 222C1188.82 222 1188.24 222.584 1188.24 223.305V229H1190.85V223.305ZM1183.45 222C1184.18 222 1184.76 222.584 1184.76 223.305V229H1182.15V223.305C1182.15 222.584 1182.73 222 1183.45 222Z" fill="#F8FAFC"/>
<rect width="36.5428" height="4" transform="matrix(-1 0 0 1 1216.52 185)" fill="#F8FAFC"/>
<rect width="28.4222" height="14" transform="matrix(-1 0 0 1 1212.46 175)" fill="#F8FAFC"/>
<rect width="42.6333" height="2" transform="matrix(-1 0 0 1 1219.56 233)" fill="#D9D9D9" fill-opacity="0.26"/>
<rect width="34.5126" height="2" transform="matrix(-1 0 0 1 1215.5 189)" fill="#D9D9D9" fill-opacity="0.26"/>
<path fill-rule="evenodd" clip-rule="evenodd" d="M1197.74 432V86.9975L1197.93 81L1199.64 148.787L1225.15 175H1212.46V185H1216.52V189H1215.5V191V218H1219.56V233V235H1219.38L1239.88 422.809V432H1198.25H1197.74Z" fill="black" fill-opacity="0.2"/>
<path d="M1.99255 484H222.695H473.579H1262.07H1516.73V978H1.99255V484Z" fill="url(#paint1_linear_433_47019)" fill-opacity="0.84"/>
<g opacity="0.6" clip-path="url(#clip0_433_47019)">
<path d="M194.242 274.888C193.615 262.165 181.512 252.317 166.79 252.071C158.555 241.716 143.078 235.133 125.663 235.955C110.628 236.676 97.5767 242.771 89.6614 251.646C89.0888 251.601 88.533 251.558 87.9772 251.516C68.8037 249.919 52.3657 260.521 51.2238 275.055C50.0819 289.589 64.6649 302.6 83.8139 304.077C90.9789 304.691 98.1827 303.466 104.731 300.52C112.429 303.614 120.72 304.993 129.016 304.558C137.445 304.183 145.683 301.951 153.132 298.024C157.53 299.819 162.275 300.626 167.026 300.389C182.706 299.651 194.889 288.217 194.242 274.888Z" fill="white"/>
</g>
<g opacity="0.6" clip-path="url(#clip1_433_47019)">
<path d="M918.525 397.626C918.589 391.983 913.502 387.301 907 386.793C903.638 381.991 896.972 378.662 889.25 378.554C882.584 378.465 876.65 380.807 872.913 384.516C872.661 384.481 872.416 384.447 872.172 384.413C863.738 383.188 856.186 387.43 855.291 393.826C854.396 400.222 860.494 406.37 868.92 407.541C872.072 408.007 875.289 407.66 878.263 406.535C881.584 408.112 885.212 408.946 888.892 408.978C892.628 409.041 896.33 408.277 899.729 406.742C901.625 407.655 903.701 408.14 905.808 408.164C912.76 408.262 918.453 403.537 918.525 397.626Z" fill="white"/>
</g>
<g opacity="0.6" clip-path="url(#clip2_433_47019)">
<path d="M540.578 400.819C540.206 393.217 533.019 387.333 524.276 387.187C519.387 381 510.195 377.067 499.854 377.558C490.926 377.989 483.176 381.63 478.475 386.932C478.135 386.906 477.805 386.88 477.475 386.855C466.089 385.901 456.328 392.235 455.65 400.919C454.972 409.602 463.631 417.376 475.003 418.258C479.258 418.625 483.535 417.893 487.424 416.133C491.995 417.982 496.919 418.805 501.845 418.546C506.85 418.321 511.743 416.988 516.166 414.642C518.778 415.714 521.596 416.196 524.417 416.054C533.728 415.613 540.963 408.783 540.578 400.819Z" fill="white"/>
</g>
<path d="M770.408 661.988L1516.74 644.097V689.818L770.408 661.988Z" fill="white" fill-opacity="0.3"/>
<path d="M1099.44 520.851L1516.74 511.906V534.766L1099.44 520.851Z" fill="white" fill-opacity="0.3"/>
<path d="M858.854 539.748L2.41651 569.433L1.75685 526.925L858.854 539.748Z" fill="white" fill-opacity="0.3"/>
<path d="M976.051 715.826L1516.74 690V756L976.051 715.826Z" fill="black" fill-opacity="0.1"/>
<path d="M487.524 827.957L2.00629 844L2.00629 803L487.524 827.957Z" fill="white" fill-opacity="0.3"/>
<path d="M1073.6 432L1011.16 484H1522.76V294L1472.41 314H1371.7L1335.44 332L1270.99 346L1244.8 360H1170.28L1132.01 382L1089.71 402L1073.6 432Z" fill="#9BCCB4"/>
<path d="M1093.08 432L1034.22 484H1516.47V294L1469.01 314H1374.07L1339.9 332L1279.14 346L1254.46 360H1184.21L1148.14 382L1108.27 402L1093.08 432Z" fill="#7EB399"/>
<defs>
<linearGradient id="paint0_linear_433_47019" x1="760.377" y1="13" x2="760.875" y2="981" gradientUnits="userSpaceOnUse">
<stop stop-color="#77E0F1"/>
<stop offset="1" stop-color="#FFF59E" stop-opacity="0"/>
</linearGradient>
<linearGradient id="paint1_linear_433_47019" x1="759.36" y1="422.127" x2="759.36" y2="978" gradientUnits="userSpaceOnUse">
<stop stop-color="#A8E3E0"/>
<stop offset="1" stop-color="#0298EE"/>
</linearGradient>
<clipPath id="clip0_433_47019">
<rect width="142.735" height="71.6236" fill="white" transform="matrix(0.997039 0.0768995 -0.0783233 0.996928 54.7635 230)"/>
</clipPath>
<clipPath id="clip1_433_47019">
<rect width="63.2253" height="31.7264" fill="white" transform="matrix(0.990471 0.137723 -0.138572 0.990352 858.065 374)"/>
</clipPath>
<clipPath id="clip2_433_47019">
<rect width="84.7634" height="42.7908" fill="white" transform="matrix(0.997003 0.077367 -0.0778501 0.996965 457.752 374)"/>
</clipPath>
</defs>
</svg>
