<svg width="1523" height="981" viewBox="0 0 1523 981" fill="none" xmlns="http://www.w3.org/2000/svg">
<rect x="1" width="1521.76" height="981" fill="url(#paint0_linear_545_12492)"/>
<path fill-rule="evenodd" clip-rule="evenodd" d="M627.33 410.049C605.935 385.837 572.027 371.563 534.231 374.344C496.755 377.134 464 396.114 443.922 423.302L439.733 422.977C392.044 418.92 350.668 451.68 347.229 495.727C343.789 539.775 379.577 578.574 427.21 582.27C434.281 582.893 441.379 582.639 448.396 581.531C462.657 601.844 486.53 616.101 514.483 618.27C532.303 619.839 550.295 615.839 566.725 606.654C585.772 615.71 606.365 619.549 627.045 617.898C648.054 616.42 668.664 609.329 687.377 597.141C698.259 602.395 710.044 604.647 721.886 603.736C760.97 600.867 791.782 565.761 790.716 525.434C789.676 486.941 759.934 457.617 723.277 457.469C704.096 427.847 668.319 408.91 627.33 410.049Z" fill="white" fill-opacity="0.4"/>
<path fill-rule="evenodd" clip-rule="evenodd" d="M1281.28 413.414C1254.4 395.444 1217.96 390.265 1182.12 402.567C1146.6 414.795 1119.79 441.477 1107.33 472.871L1103.2 473.622C1056.05 481.828 1024.43 524.026 1032.37 567.491C1040.32 610.956 1084.85 639.369 1131.85 630.83C1138.85 629.634 1145.65 627.583 1152.15 624.727C1171.14 640.741 1197.87 648.455 1225.45 643.444C1243.08 640.43 1259.46 631.986 1272.99 618.926C1293.73 622.839 1314.62 621.314 1334.19 614.458C1354.13 607.686 1372.24 595.588 1387.22 579.044C1399.09 581.357 1411.06 580.538 1422.27 576.645C1459.33 563.932 1480.14 522.152 1468.79 483.43C1457.93 446.475 1421.67 425.685 1386.19 434.864C1360.06 411.101 1320.62 401.888 1281.28 413.414Z" fill="white" fill-opacity="0.4"/>
<mask id="path-4-inside-1_545_12492" fill="white">
<path fill-rule="evenodd" clip-rule="evenodd" d="M245.781 388C245.456 392.442 244.772 396.785 243.759 401H234C232.343 401 231 399.657 231 398V391C231 389.343 232.343 388 234 388H245.781Z"/>
</mask>
<path fill-rule="evenodd" clip-rule="evenodd" d="M245.781 388C245.456 392.442 244.772 396.785 243.759 401H234C232.343 401 231 399.657 231 398V391C231 389.343 232.343 388 234 388H245.781Z" fill="white"/>
<path d="M245.781 388L246.778 388.073L246.857 387H245.781V388ZM243.759 401V402H244.547L244.732 401.234L243.759 401ZM244.784 387.927C244.463 392.315 243.787 396.604 242.787 400.766L244.732 401.234C245.757 396.967 246.449 392.57 246.778 388.073L244.784 387.927ZM243.759 400H234V402H243.759V400ZM234 400C232.895 400 232 399.105 232 398H230C230 400.209 231.791 402 234 402V400ZM232 398V391H230V398H232ZM232 391C232 389.895 232.895 389 234 389V387C231.791 387 230 388.791 230 391H232ZM234 389H245.781V387H234V389Z" fill="#989898" fill-opacity="0.35" mask="url(#path-4-inside-1_545_12492)"/>
<path d="M1 484H222.032H473.291H1262.96H1518V978H1V484Z" fill="url(#paint1_linear_545_12492)" fill-opacity="0.84"/>
<g opacity="0.6" clip-path="url(#clip0_545_12492)">
<path d="M508.089 269.888C507.462 257.165 495.358 247.317 480.637 247.071C472.402 236.716 456.924 230.133 439.509 230.955C424.475 231.676 411.423 237.771 403.508 246.646C402.936 246.601 402.38 246.558 401.824 246.516C382.651 244.919 366.212 255.521 365.071 270.055C363.929 284.589 378.512 297.6 397.661 299.077C404.826 299.691 412.029 298.466 418.578 295.52C426.276 298.614 434.567 299.993 442.863 299.558C451.291 299.183 459.53 296.951 466.979 293.024C471.377 294.819 476.122 295.626 480.873 295.389C496.553 294.651 508.736 283.217 508.089 269.888Z" fill="white"/>
</g>
<g opacity="0.6" clip-path="url(#clip1_545_12492)">
<path d="M1465.86 366.626C1465.92 360.983 1460.83 356.301 1454.33 355.793C1450.97 350.991 1444.3 347.662 1436.58 347.554C1429.92 347.465 1423.98 349.807 1420.24 353.516C1419.99 353.481 1419.75 353.447 1419.5 353.413C1411.07 352.188 1403.52 356.43 1402.62 362.826C1401.73 369.222 1407.83 375.37 1416.25 376.541C1419.4 377.007 1422.62 376.66 1425.59 375.535C1428.91 377.112 1432.54 377.946 1436.22 377.978C1439.96 378.041 1443.66 377.277 1447.06 375.742C1448.96 376.655 1451.03 377.14 1453.14 377.164C1460.09 377.262 1465.78 372.537 1465.86 366.626Z" fill="white"/>
</g>
<g opacity="0.6" clip-path="url(#clip2_545_12492)">
<path d="M874.157 389.819C873.785 382.217 866.597 376.333 857.855 376.187C852.965 370 843.774 366.067 833.433 366.558C824.505 366.989 816.754 370.63 812.054 375.932C811.714 375.906 811.384 375.88 811.054 375.855C799.668 374.901 789.907 381.235 789.229 389.919C788.551 398.602 797.21 406.376 808.582 407.258C812.836 407.625 817.114 406.893 821.003 405.133C825.574 406.982 830.498 407.805 835.424 407.546C840.429 407.321 845.321 405.988 849.745 403.642C852.357 404.714 855.174 405.196 857.996 405.054C867.307 404.613 874.542 397.783 874.157 389.819Z" fill="white"/>
</g>
<path d="M771.408 647.988L1517.74 630.097V675.818L771.408 647.988Z" fill="white" fill-opacity="0.3"/>
<path d="M1100.44 520.851L1517.74 511.906V534.766L1100.44 520.851Z" fill="white" fill-opacity="0.3"/>
<path d="M857.097 539.875L0.659551 569.56L-0.000103939 527.051L857.097 539.875Z" fill="white" fill-opacity="0.3"/>
<path d="M977.052 715.826L1517.74 690V756L977.052 715.826Z" fill="black" fill-opacity="0.1"/>
<path d="M488.524 827.957L3.00665 844L3.00666 803L488.524 827.957Z" fill="white" fill-opacity="0.3"/>
<path d="M382.031 445.411L435 484H1V343L43.7165 357.842H129.15L159.906 371.2L214.583 381.589L236.795 391.979H300.016L332.48 408.305L368.362 423.147L382.031 445.411Z" fill="#DFDFDF"/>
<mask id="path-16-inside-2_545_12492" fill="white">
<path fill-rule="evenodd" clip-rule="evenodd" d="M103.745 333C107.969 328.122 112.766 323.754 118.031 320H119C120.657 320 122 321.343 122 323V330C122 331.657 120.657 333 119 333H103.745Z"/>
</mask>
<path fill-rule="evenodd" clip-rule="evenodd" d="M103.745 333C107.969 328.122 112.766 323.754 118.031 320H119C120.657 320 122 321.343 122 323V330C122 331.657 120.657 333 119 333H103.745Z" fill="white"/>
<path d="M103.745 333L102.233 331.691L99.3669 335H103.745V333ZM118.031 320V318H117.392L116.87 318.371L118.031 320ZM105.257 334.309C109.377 329.551 114.057 325.29 119.192 321.629L116.87 318.371C111.476 322.218 106.561 326.693 102.233 331.691L105.257 334.309ZM118.031 322H119V318H118.031V322ZM119 322C119.552 322 120 322.448 120 323H124C124 320.239 121.761 318 119 318V322ZM120 323V330H124V323H120ZM120 330C120 330.552 119.552 331 119 331V335C121.761 335 124 332.761 124 330H120ZM119 331H103.745V335H119V331Z" fill="#989898" fill-opacity="0.35" mask="url(#path-16-inside-2_545_12492)"/>
<rect x="121" y="320" width="30" height="13" rx="3" fill="white"/>
<rect x="122" y="321" width="28" height="11" rx="2" stroke="#989898" stroke-opacity="0.35" stroke-width="2"/>
<rect x="150" y="320" width="30" height="13" rx="3" fill="white"/>
<rect x="151" y="321" width="28" height="11" rx="2" stroke="#989898" stroke-opacity="0.35" stroke-width="2"/>
<rect x="179" y="320" width="30" height="13" rx="3" fill="white"/>
<rect x="180" y="321" width="28" height="11" rx="2" stroke="#989898" stroke-opacity="0.35" stroke-width="2"/>
<mask id="path-24-inside-3_545_12492" fill="white">
<path fill-rule="evenodd" clip-rule="evenodd" d="M211.968 320C217.234 323.754 222.031 328.122 226.255 333H211C209.343 333 208 331.657 208 330V323C208 321.343 209.343 320 211 320H211.968Z"/>
</mask>
<path fill-rule="evenodd" clip-rule="evenodd" d="M211.968 320C217.234 323.754 222.031 328.122 226.255 333H211C209.343 333 208 331.657 208 330V323C208 321.343 209.343 320 211 320H211.968Z" fill="white"/>
<path d="M211.968 320L213.129 318.371L212.608 318H211.968V320ZM226.255 333V335H230.633L227.767 331.691L226.255 333ZM210.807 321.629C215.943 325.29 220.623 329.551 224.743 334.309L227.767 331.691C223.439 326.693 218.524 322.218 213.129 318.371L210.807 321.629ZM226.255 331H211V335H226.255V331ZM211 331C210.448 331 210 330.552 210 330H206C206 332.761 208.239 335 211 335V331ZM210 330V323H206V330H210ZM210 323C210 322.448 210.448 322 211 322V318C208.239 318 206 320.239 206 323H210ZM211 322H211.968V318H211V322Z" fill="#989898" fill-opacity="0.35" mask="url(#path-24-inside-3_545_12492)"/>
<mask id="path-26-inside-4_545_12492" fill="white">
<path fill-rule="evenodd" clip-rule="evenodd" d="M187 307.349V313C187 314.657 185.657 316 184 316H144.948C143.291 316 141.948 314.657 141.948 313V308.956C149.685 305.071 157.817 303 166.207 303C173.353 303 180.313 304.503 187 307.349Z"/>
</mask>
<path fill-rule="evenodd" clip-rule="evenodd" d="M187 307.349V313C187 314.657 185.657 316 184 316H144.948C143.291 316 141.948 314.657 141.948 313V308.956C149.685 305.071 157.817 303 166.207 303C173.353 303 180.313 304.503 187 307.349Z" fill="white"/>
<path d="M187 307.349H189V306.026L187.783 305.509L187 307.349ZM141.948 308.956L141.051 307.168L139.948 307.722V308.956H141.948ZM185 307.349V313H189V307.349H185ZM185 313C185 313.552 184.552 314 184 314V318C186.761 318 189 315.761 189 313H185ZM184 314H144.948V318H184V314ZM144.948 314C144.396 314 143.948 313.552 143.948 313H139.948C139.948 315.761 142.187 318 144.948 318V314ZM143.948 313V308.956H139.948V313H143.948ZM142.846 310.743C150.329 306.985 158.156 305 166.207 305V301C157.478 301 149.04 303.157 141.051 307.168L142.846 310.743ZM166.207 305C173.066 305 179.76 306.441 186.217 309.189L187.783 305.509C180.865 302.564 173.64 301 166.207 301V305Z" fill="#989898" fill-opacity="0.35" mask="url(#path-26-inside-4_545_12492)"/>
<mask id="path-28-inside-5_545_12492" fill="white">
<path fill-rule="evenodd" clip-rule="evenodd" d="M116.66 321C123.255 316.087 130.623 312.154 138.549 309.417C138.835 309.877 139 310.419 139 311V318C139 319.657 137.657 321 136 321H116.66Z"/>
</mask>
<path fill-rule="evenodd" clip-rule="evenodd" d="M116.66 321C123.255 316.087 130.623 312.154 138.549 309.417C138.835 309.877 139 310.419 139 311V318C139 319.657 137.657 321 136 321H116.66Z" fill="white"/>
<path d="M116.66 321L115.465 319.396L110.627 323H116.66V321ZM138.549 309.417L140.247 308.361L139.404 307.006L137.896 307.527L138.549 309.417ZM117.854 322.604C124.287 317.812 131.474 313.977 139.202 311.308L137.896 307.527C129.773 310.332 122.222 314.362 115.465 319.396L117.854 322.604ZM136.851 310.474C136.945 310.625 137 310.803 137 311H141C141 310.035 140.725 309.128 140.247 308.361L136.851 310.474ZM137 311V318H141V311H137ZM137 318C137 318.552 136.553 319 136 319V323C138.762 323 141 320.761 141 318H137ZM136 319H116.66V323H136V319Z" fill="#989898" fill-opacity="0.35" mask="url(#path-28-inside-5_545_12492)"/>
<mask id="path-30-inside-6_545_12492" fill="white">
<path fill-rule="evenodd" clip-rule="evenodd" d="M138.425 309.46C139.957 308.928 141.51 308.441 143.083 308H165C166.657 308 168 309.343 168 311V318C168 319.657 166.657 321 165 321H141C139.343 321 138 319.657 138 318V311C138 310.437 138.155 309.91 138.425 309.46Z"/>
</mask>
<path fill-rule="evenodd" clip-rule="evenodd" d="M138.425 309.46C139.957 308.928 141.51 308.441 143.083 308H165C166.657 308 168 309.343 168 311V318C168 319.657 166.657 321 165 321H141C139.343 321 138 319.657 138 318V311C138 310.437 138.155 309.91 138.425 309.46Z" fill="white"/>
<path d="M138.425 309.46L137.769 307.571L137.083 307.809L136.709 308.432L138.425 309.46ZM143.083 308V306H142.808L142.543 306.074L143.083 308ZM139.081 311.35C140.575 310.831 142.09 310.356 143.623 309.926L142.543 306.074C140.931 306.526 139.339 307.026 137.769 307.571L139.081 311.35ZM143.083 310H165V306H143.083V310ZM165 310C165.552 310 166 310.448 166 311H170C170 308.239 167.761 306 165 306V310ZM166 311V318H170V311H166ZM166 318C166 318.552 165.552 319 165 319V323C167.761 323 170 320.761 170 318H166ZM165 319H141V323H165V319ZM141 319C140.448 319 140 318.552 140 318H136C136 320.761 138.239 323 141 323V319ZM140 318V311H136V318H140ZM140 311C140 310.809 140.052 310.636 140.14 310.488L136.709 308.432C136.259 309.184 136 310.065 136 311H140Z" fill="#989898" fill-opacity="0.35" mask="url(#path-30-inside-6_545_12492)"/>
<mask id="path-32-inside-7_545_12492" fill="white">
<path fill-rule="evenodd" clip-rule="evenodd" d="M186.917 308C190.377 308.97 193.744 310.165 197 311.566V318C197 319.657 195.657 321 194 321H170C168.343 321 167 319.657 167 318V311C167 309.343 168.343 308 170 308H186.917Z"/>
</mask>
<path fill-rule="evenodd" clip-rule="evenodd" d="M186.917 308C190.377 308.97 193.744 310.165 197 311.566V318C197 319.657 195.657 321 194 321H170C168.343 321 167 319.657 167 318V311C167 309.343 168.343 308 170 308H186.917Z" fill="white"/>
<path d="M186.917 308L187.457 306.074L187.192 306H186.917V308ZM197 311.566H199V310.25L197.791 309.729L197 311.566ZM186.377 309.926C189.751 310.872 193.034 312.036 196.209 313.403L197.791 309.729C194.454 308.293 191.003 307.069 187.457 306.074L186.377 309.926ZM195 311.566V318H199V311.566H195ZM195 318C195 318.552 194.552 319 194 319V323C196.761 323 199 320.761 199 318H195ZM194 319H170V323H194V319ZM170 319C169.448 319 169 318.552 169 318H165C165 320.761 167.239 323 170 323V319ZM169 318V311H165V318H169ZM169 311C169 310.448 169.448 310 170 310V306C167.239 306 165 308.239 165 311H169ZM170 310H186.917V306H170V310Z" fill="#989898" fill-opacity="0.35" mask="url(#path-32-inside-7_545_12492)"/>
<mask id="path-34-inside-8_545_12492" fill="white">
<path fill-rule="evenodd" clip-rule="evenodd" d="M196 311.144C202.207 313.717 208.025 317.04 213.341 321H199C197.343 321 196 319.657 196 318V311.144Z"/>
</mask>
<path fill-rule="evenodd" clip-rule="evenodd" d="M196 311.144C202.207 313.717 208.025 317.04 213.341 321H199C197.343 321 196 319.657 196 318V311.144Z" fill="white"/>
<path d="M196 311.144L196.766 309.296L194 308.15V311.144H196ZM213.341 321V323H219.373L214.535 319.396L213.341 321ZM195.234 312.991C201.287 315.501 206.961 318.742 212.146 322.604L214.535 319.396C209.089 315.339 203.127 311.934 196.766 309.296L195.234 312.991ZM213.341 319H199V323H213.341V319ZM199 319C198.448 319 198 318.552 198 318H194C194 320.761 196.239 323 199 323V319ZM198 318V311.144H194V318H198Z" fill="#989898" fill-opacity="0.35" mask="url(#path-34-inside-8_545_12492)"/>
<rect x="109" y="332" width="30" height="13" rx="3" fill="white"/>
<rect x="110" y="333" width="28" height="11" rx="2" stroke="#989898" stroke-opacity="0.35" stroke-width="2"/>
<mask id="path-38-inside-9_545_12492" fill="white">
<path fill-rule="evenodd" clip-rule="evenodd" d="M95.1279 345C97.8627 340.35 101.048 335.996 104.625 332H107C108.657 332 110 333.343 110 335V342C110 343.657 108.657 345 107 345H95.1279Z"/>
</mask>
<path fill-rule="evenodd" clip-rule="evenodd" d="M95.1279 345C97.8627 340.35 101.048 335.996 104.625 332H107C108.657 332 110 333.343 110 335V342C110 343.657 108.657 345 107 345H95.1279Z" fill="white"/>
<path d="M95.1279 345L93.4039 343.986L91.6316 347H95.1279V345ZM104.625 332V330H103.731L103.135 330.666L104.625 332ZM96.8519 346.014C99.5191 341.478 102.626 337.232 106.115 333.334L103.135 330.666C99.4704 334.76 96.2062 339.221 93.4039 343.986L96.8519 346.014ZM104.625 334H107V330H104.625V334ZM107 334C107.552 334 108 334.448 108 335H112C112 332.239 109.761 330 107 330V334ZM108 335V342H112V335H108ZM108 342C108 342.552 107.552 343 107 343V347C109.761 347 112 344.761 112 342H108ZM107 343H95.1279V347H107V343Z" fill="#989898" fill-opacity="0.35" mask="url(#path-38-inside-9_545_12492)"/>
<rect x="138" y="332" width="30" height="13" rx="3" fill="white"/>
<rect x="139" y="333" width="28" height="11" rx="2" stroke="#989898" stroke-opacity="0.35" stroke-width="2"/>
<rect x="167" y="332" width="30" height="13" rx="3" fill="white"/>
<rect x="168" y="333" width="28" height="11" rx="2" stroke="#989898" stroke-opacity="0.35" stroke-width="2"/>
<rect x="196" y="332" width="30" height="13" rx="3" fill="white"/>
<rect x="197" y="333" width="28" height="11" rx="2" stroke="#989898" stroke-opacity="0.35" stroke-width="2"/>
<mask id="path-46-inside-10_545_12492" fill="white">
<path fill-rule="evenodd" clip-rule="evenodd" d="M226.028 332.739C229.34 336.531 232.305 340.635 234.872 345H228C226.343 345 225 343.657 225 342V335C225 334.098 225.398 333.289 226.028 332.739Z"/>
</mask>
<path fill-rule="evenodd" clip-rule="evenodd" d="M226.028 332.739C229.34 336.531 232.305 340.635 234.872 345H228C226.343 345 225 343.657 225 342V335C225 334.098 225.398 333.289 226.028 332.739Z" fill="white"/>
<path d="M226.028 332.739L227.535 331.423L226.219 329.917L224.713 331.232L226.028 332.739ZM234.872 345V347H238.368L236.596 343.986L234.872 345ZM224.522 334.055C227.753 337.754 230.644 341.756 233.148 346.014L236.596 343.986C233.966 339.513 230.928 335.308 227.535 331.423L224.522 334.055ZM234.872 343H228V347H234.872V343ZM228 343C227.448 343 227 342.552 227 342H223C223 344.761 225.239 347 228 347V343ZM227 342V335H223V342H227ZM227 335C227 334.7 227.13 334.432 227.343 334.246L224.713 331.232C223.666 332.146 223 333.496 223 335H227Z" fill="#989898" fill-opacity="0.35" mask="url(#path-46-inside-10_545_12492)"/>
<mask id="path-48-inside-11_545_12492" fill="white">
<path fill-rule="evenodd" clip-rule="evenodd" d="M92 350.857C93.1339 348.506 94.3781 346.218 95.7258 344H119C120.657 344 122 345.343 122 347V354C122 355.657 120.657 357 119 357H95C93.3431 357 92 355.657 92 354V350.857Z"/>
</mask>
<path fill-rule="evenodd" clip-rule="evenodd" d="M92 350.857C93.1339 348.506 94.3781 346.218 95.7258 344H119C120.657 344 122 345.343 122 347V354C122 355.657 120.657 357 119 357H95C93.3431 357 92 355.657 92 354V350.857Z" fill="white"/>
<path d="M92 350.857L90.1986 349.988L90 350.4V350.857H92ZM95.7258 344V342H94.6007L94.0165 342.961L95.7258 344ZM93.8014 351.726C94.9072 349.433 96.1206 347.202 97.435 345.039L94.0165 342.961C92.6356 345.234 91.3606 347.579 90.1986 349.988L93.8014 351.726ZM95.7258 346H119V342H95.7258V346ZM119 346C119.552 346 120 346.448 120 347H124C124 344.239 121.761 342 119 342V346ZM120 347V354H124V347H120ZM120 354C120 354.552 119.552 355 119 355V359C121.761 359 124 356.761 124 354H120ZM119 355H95V359H119V355ZM95 355C94.4477 355 94 354.552 94 354H90C90 356.761 92.2386 359 95 359V355ZM94 354V350.857H90V354H94Z" fill="#989898" fill-opacity="0.35" mask="url(#path-48-inside-11_545_12492)"/>
<rect x="121" y="344" width="30" height="13" rx="3" fill="white"/>
<rect x="122" y="345" width="28" height="11" rx="2" stroke="#989898" stroke-opacity="0.35" stroke-width="2"/>
<rect x="150" y="344" width="30" height="13" rx="3" fill="white"/>
<rect x="151" y="345" width="28" height="11" rx="2" stroke="#989898" stroke-opacity="0.35" stroke-width="2"/>
<rect x="179" y="344" width="30" height="13" rx="3" fill="white"/>
<rect x="180" y="345" width="28" height="11" rx="2" stroke="#989898" stroke-opacity="0.35" stroke-width="2"/>
<mask id="path-56-inside-12_545_12492" fill="white">
<path fill-rule="evenodd" clip-rule="evenodd" d="M234.274 344C235.622 346.218 236.866 348.506 238 350.857V354C238 355.657 236.657 357 235 357H211C209.343 357 208 355.657 208 354V347C208 345.343 209.343 344 211 344H234.274Z"/>
</mask>
<path fill-rule="evenodd" clip-rule="evenodd" d="M234.274 344C235.622 346.218 236.866 348.506 238 350.857V354C238 355.657 236.657 357 235 357H211C209.343 357 208 355.657 208 354V347C208 345.343 209.343 344 211 344H234.274Z" fill="white"/>
<path d="M234.274 344L235.983 342.961L235.399 342H234.274V344ZM238 350.857H240V350.4L239.801 349.988L238 350.857ZM232.565 345.039C233.879 347.202 235.093 349.433 236.199 351.726L239.801 349.988C238.639 347.579 237.364 345.234 235.983 342.961L232.565 345.039ZM236 350.857V354H240V350.857H236ZM236 354C236 354.552 235.552 355 235 355V359C237.761 359 240 356.761 240 354H236ZM235 355H211V359H235V355ZM211 355C210.448 355 210 354.552 210 354H206C206 356.761 208.239 359 211 359V355ZM210 354V347H206V354H210ZM210 347C210 346.448 210.448 346 211 346V342C208.239 342 206 344.239 206 347H210ZM211 346H234.274V342H211V346Z" fill="#989898" fill-opacity="0.35" mask="url(#path-56-inside-12_545_12492)"/>
<rect x="109" y="356" width="30" height="13" rx="3" fill="white"/>
<rect x="110" y="357" width="28" height="11" rx="2" stroke="#989898" stroke-opacity="0.35" stroke-width="2"/>
<mask id="path-60-inside-13_545_12492" fill="white">
<path fill-rule="evenodd" clip-rule="evenodd" d="M87.9995 369C88.8692 364.518 90.0758 360.174 91.5887 356H107C108.657 356 110 357.343 110 359V366C110 367.657 108.657 369 107 369H87.9995Z"/>
</mask>
<path fill-rule="evenodd" clip-rule="evenodd" d="M87.9995 369C88.8692 364.518 90.0758 360.174 91.5887 356H107C108.657 356 110 357.343 110 359V366C110 367.657 108.657 369 107 369H87.9995Z" fill="white"/>
<path d="M87.9995 369L86.0361 368.619L85.5741 371H87.9995V369ZM91.5887 356V354H90.1864L89.7085 355.318L91.5887 356ZM89.9629 369.381C90.8128 365.001 91.9916 360.757 93.469 356.682L89.7085 355.318C88.1601 359.59 86.9257 364.035 86.0361 368.619L89.9629 369.381ZM91.5887 358H107V354H91.5887V358ZM107 358C107.552 358 108 358.448 108 359H112C112 356.239 109.761 354 107 354V358ZM108 359V366H112V359H108ZM108 366C108 366.552 107.552 367 107 367V371C109.761 371 112 368.761 112 366H108ZM107 367H87.9995V371H107V367Z" fill="#989898" fill-opacity="0.35" mask="url(#path-60-inside-13_545_12492)"/>
<rect x="138" y="356" width="30" height="13" rx="3" fill="white"/>
<rect x="139" y="357" width="28" height="11" rx="2" stroke="#989898" stroke-opacity="0.35" stroke-width="2"/>
<rect x="167" y="356" width="30" height="13" rx="3" fill="white"/>
<rect x="168" y="357" width="28" height="11" rx="2" stroke="#989898" stroke-opacity="0.35" stroke-width="2"/>
<rect x="196" y="356" width="30" height="13" rx="3" fill="white"/>
<rect x="197" y="357" width="28" height="11" rx="2" stroke="#989898" stroke-opacity="0.35" stroke-width="2"/>
<mask id="path-68-inside-14_545_12492" fill="white">
<path fill-rule="evenodd" clip-rule="evenodd" d="M240.263 356C241.928 360.174 243.256 364.518 244.213 369H228C226.343 369 225 367.657 225 366V359C225 357.343 226.343 356 228 356H240.263Z"/>
</mask>
<path fill-rule="evenodd" clip-rule="evenodd" d="M240.263 356C241.928 360.174 243.256 364.518 244.213 369H228C226.343 369 225 367.657 225 366V359C225 357.343 226.343 356 228 356H240.263Z" fill="white"/>
<path d="M240.263 356L242.12 355.259L241.618 354H240.263V356ZM244.213 369V371H246.685L246.169 368.582L244.213 369ZM238.405 356.741C240.029 360.811 241.324 365.047 242.257 369.418L246.169 368.582C245.188 363.989 243.827 359.536 242.12 355.259L238.405 356.741ZM244.213 367H228V371H244.213V367ZM228 367C227.448 367 227 366.552 227 366H223C223 368.761 225.239 371 228 371V367ZM227 366V359H223V366H227ZM227 359C227 358.448 227.448 358 228 358V354C225.239 354 223 356.239 223 359H227ZM228 358H240.263V354H228V358Z" fill="#989898" fill-opacity="0.35" mask="url(#path-68-inside-14_545_12492)"/>
<rect x="87" y="368" width="35" height="13" rx="3" fill="white"/>
<rect x="88" y="369" width="33" height="11" rx="2" stroke="#989898" stroke-opacity="0.35" stroke-width="2"/>
<rect x="121" y="368" width="30" height="13" rx="3" fill="white"/>
<rect x="122" y="369" width="28" height="11" rx="2" stroke="#989898" stroke-opacity="0.35" stroke-width="2"/>
<rect x="150" y="368" width="30" height="13" rx="3" fill="white"/>
<rect x="151" y="369" width="28" height="11" rx="2" stroke="#989898" stroke-opacity="0.35" stroke-width="2"/>
<rect x="179" y="368" width="30" height="13" rx="3" fill="white"/>
<rect x="180" y="369" width="28" height="11" rx="2" stroke="#989898" stroke-opacity="0.35" stroke-width="2"/>
<rect x="208" y="368" width="30" height="13" rx="3" fill="white"/>
<rect x="209" y="369" width="28" height="11" rx="2" stroke="#989898" stroke-opacity="0.35" stroke-width="2"/>
<mask id="path-80-inside-15_545_12492" fill="white">
<path fill-rule="evenodd" clip-rule="evenodd" d="M243.993 368C244.95 372.218 245.578 376.561 245.848 381H240C238.343 381 237 379.657 237 378V371C237 369.343 238.343 368 240 368H243.993Z"/>
</mask>
<path fill-rule="evenodd" clip-rule="evenodd" d="M243.993 368C244.95 372.218 245.578 376.561 245.848 381H240C238.343 381 237 379.657 237 378V371C237 369.343 238.343 368 240 368H243.993Z" fill="white"/>
<path d="M243.993 368L245.943 367.557L245.59 366H243.993V368ZM245.848 381V383H247.974L247.845 380.878L245.848 381ZM242.042 368.443C242.976 372.555 243.588 376.791 243.852 381.122L247.845 380.878C247.568 376.33 246.924 371.88 245.943 367.557L242.042 368.443ZM245.848 379H240V383H245.848V379ZM240 379C239.448 379 239 378.552 239 378H235C235 380.761 237.239 383 240 383V379ZM239 378V371H235V378H239ZM239 371C239 370.448 239.448 370 240 370V366C237.239 366 235 368.239 235 371H239ZM240 370H243.993V366H240V370Z" fill="#989898" fill-opacity="0.35" mask="url(#path-80-inside-15_545_12492)"/>
<rect x="109" y="380" width="30" height="13" rx="3" fill="white"/>
<rect x="110" y="381" width="28" height="11" rx="2" stroke="#989898" stroke-opacity="0.35" stroke-width="2"/>
<rect x="138" y="380" width="30" height="13" rx="3" fill="white"/>
<rect x="139" y="381" width="28" height="11" rx="2" stroke="#989898" stroke-opacity="0.35" stroke-width="2"/>
<rect x="167" y="380" width="30" height="13" rx="3" fill="white"/>
<rect x="168" y="381" width="28" height="11" rx="2" stroke="#989898" stroke-opacity="0.35" stroke-width="2"/>
<rect x="196" y="380" width="30" height="13" rx="3" fill="white"/>
<rect x="197" y="381" width="28" height="11" rx="2" stroke="#989898" stroke-opacity="0.35" stroke-width="2"/>
<rect x="202" y="392" width="30" height="13" rx="3" fill="white"/>
<rect x="203" y="393" width="28" height="11" rx="2" stroke="#989898" stroke-opacity="0.35" stroke-width="2"/>
<mask id="path-92-inside-16_545_12492" fill="white">
<path fill-rule="evenodd" clip-rule="evenodd" d="M245.702 393C245.899 390.693 246 388.358 246 386C246 383.982 245.926 381.981 245.781 380H228C226.343 380 225 381.343 225 383V390C225 391.657 226.343 393 228 393H245.702Z"/>
</mask>
<path fill-rule="evenodd" clip-rule="evenodd" d="M245.702 393C245.899 390.693 246 388.358 246 386C246 383.982 245.926 381.981 245.781 380H228C226.343 380 225 381.343 225 383V390C225 391.657 226.343 393 228 393H245.702Z" fill="white"/>
<path d="M245.702 393V395H247.538L247.694 393.171L245.702 393ZM245.781 380L247.776 379.854L247.64 378H245.781V380ZM244 386C244 388.301 243.902 390.579 243.709 392.829L247.694 393.171C247.897 390.807 248 388.415 248 386H244ZM243.786 380.146C243.928 382.079 244 384.031 244 386H248C248 383.933 247.924 381.884 247.776 379.854L243.786 380.146ZM228 382H245.781V378H228V382ZM227 383C227 382.448 227.448 382 228 382V378C225.239 378 223 380.239 223 383H227ZM227 390V383H223V390H227ZM228 391C227.448 391 227 390.552 227 390H223C223 392.761 225.239 395 228 395V391ZM245.702 391H228V395H245.702V391Z" fill="#989898" fill-opacity="0.35" mask="url(#path-92-inside-16_545_12492)"/>
<mask id="path-94-inside-17_545_12492" fill="white">
<path fill-rule="evenodd" clip-rule="evenodd" d="M257.462 368H231.522H231.194V368.017C226.087 368.555 222 381.58 222 397.569C222 399.424 222.055 401.239 222.16 403H257.462V368Z"/>
</mask>
<path fill-rule="evenodd" clip-rule="evenodd" d="M257.462 368H231.522H231.194V368.017C226.087 368.555 222 381.58 222 397.569C222 399.424 222.055 401.239 222.16 403H257.462V368Z" fill="white"/>
<path d="M257.462 368H259.462V366H257.462V368ZM231.194 368V366H229.194V368H231.194ZM231.194 368.017L231.403 370.006L233.194 369.818V368.017H231.194ZM222.16 403L220.164 403.119L220.276 405H222.16V403ZM257.462 403V405H259.462V403H257.462ZM231.522 370H257.462V366H231.522V370ZM231.194 370H231.522V366H231.194V370ZM233.194 368.017V368H229.194V368.017H233.194ZM224 397.569C224 389.722 225.005 382.678 226.591 377.594C227.387 375.044 228.299 373.084 229.232 371.773C230.194 370.422 230.961 370.053 231.403 370.006L230.984 366.028C228.873 366.251 227.214 367.711 225.974 369.453C224.704 371.235 223.637 373.632 222.773 376.403C221.038 381.964 220 389.427 220 397.569H224ZM224.157 402.881C224.054 401.16 224 399.385 224 397.569H220C220 399.464 220.056 401.319 220.164 403.119L224.157 402.881ZM222.16 405H257.462V401H222.16V405ZM255.462 368V403H259.462V368H255.462Z" fill="#989898" fill-opacity="0.35" mask="url(#path-94-inside-17_545_12492)"/>
<mask id="path-96-inside-18_545_12492" fill="white">
<path fill-rule="evenodd" clip-rule="evenodd" d="M265.904 401.793C265.967 400.413 266 399.003 266 397.569C266 381.238 261.737 368 256.478 368C251.219 368 246.956 381.238 246.956 397.569C246.956 399.003 246.988 400.413 247.052 401.793H265.904Z"/>
</mask>
<path fill-rule="evenodd" clip-rule="evenodd" d="M265.904 401.793C265.967 400.413 266 399.003 266 397.569C266 381.238 261.737 368 256.478 368C251.219 368 246.956 381.238 246.956 397.569C246.956 399.003 246.988 400.413 247.052 401.793H265.904Z" fill="#5A5A5A"/>
<path d="M265.904 401.793V404.793H268.769L268.901 401.931L265.904 401.793ZM247.052 401.793L244.055 401.931L244.187 404.793H247.052V401.793ZM263 397.569C263 398.957 262.969 400.322 262.907 401.655L268.901 401.931C268.966 400.505 269 399.049 269 397.569H263ZM256.478 371C256.487 371 256.508 371.001 256.549 371.014C256.593 371.028 256.673 371.06 256.788 371.133C257.029 371.286 257.377 371.589 257.798 372.141C258.651 373.262 259.548 375.073 260.356 377.58C261.96 382.56 263 389.628 263 397.569H269C269 389.179 267.909 381.463 266.067 375.741C265.151 372.897 263.996 370.378 262.571 368.506C261.182 366.681 259.151 365 256.478 365V371ZM249.956 397.569C249.956 389.628 250.996 382.56 252.6 377.58C253.408 375.073 254.305 373.262 255.158 372.141C255.579 371.589 255.927 371.286 256.168 371.133C256.283 371.06 256.362 371.028 256.407 371.014C256.448 371.001 256.469 371 256.478 371V365C253.805 365 251.774 366.681 250.385 368.506C248.959 370.378 247.805 372.897 246.889 375.741C245.046 381.463 243.956 389.179 243.956 397.569H249.956ZM250.049 401.655C249.987 400.322 249.956 398.957 249.956 397.569H243.956C243.956 399.049 243.989 400.505 244.055 401.931L250.049 401.655ZM247.052 404.793H265.904V398.793H247.052V404.793Z" fill="#DFDFDF" mask="url(#path-96-inside-18_545_12492)"/>
<path d="M224 384H249" stroke="#DFDFDF" stroke-width="2"/>
<path d="M235.078 399C234.693 390 235.539 371.4 242 369" stroke="#DFDFDF" stroke-width="2"/>
<path d="M359.205 448.603L409 484.009H1V354.641L41.1575 368.258H121.472L150.386 380.514L201.787 390.047L222.669 399.579H282.102L312.622 414.559L346.354 428.177L359.205 448.603Z" fill="white"/>
<path d="M1073.49 558.979L1011 643H1523V336L1472.61 368.316H1371.82L1335.54 397.4L1271.03 420.021L1244.83 442.642H1170.24L1131.95 478.189L1089.61 510.505L1073.49 558.979Z" fill="#DFDFDF"/>
<path d="M1150.77 561.405L1099.17 643.652H1521.99V343.134L1480.38 374.767H1397.14L1367.18 403.237L1313.91 425.381L1292.27 447.524H1230.68L1199.05 482.321L1164.09 513.955L1150.77 561.405Z" fill="white"/>
<defs>
<linearGradient id="paint0_linear_545_12492" x1="761.377" y1="13" x2="761.875" y2="981" gradientUnits="userSpaceOnUse">
<stop stop-color="#77E0F1"/>
<stop offset="1" stop-color="#FFF59E" stop-opacity="0"/>
</linearGradient>
<linearGradient id="paint1_linear_545_12492" x1="759.5" y1="422.127" x2="759.5" y2="978" gradientUnits="userSpaceOnUse">
<stop stop-color="#A8E3E0"/>
<stop offset="1" stop-color="#0298EE"/>
</linearGradient>
<clipPath id="clip0_545_12492">
<rect width="142.735" height="71.6236" fill="white" transform="matrix(0.997039 0.0768995 -0.0783233 0.996928 368.61 225)"/>
</clipPath>
<clipPath id="clip1_545_12492">
<rect width="63.2253" height="31.7264" fill="white" transform="matrix(0.990471 0.137723 -0.138572 0.990352 1405.4 343)"/>
</clipPath>
<clipPath id="clip2_545_12492">
<rect width="84.7634" height="42.7908" fill="white" transform="matrix(0.997003 0.077367 -0.0778501 0.996965 791.331 363)"/>
</clipPath>
</defs>
</svg>
